<svg width="23" height="25" viewBox="0 0 23 25" fill="none" xmlns="http://www.w3.org/2000/svg">
<path d="M12.6389 10.05H17.3611M7.91667 5.65H17.3611M21.25 17.75V6.75C21.25 3.45 19.5833 1.25 15.6944 1.25H6.80555C2.91667 1.25 1.25 3.45 1.25 6.75V17.75C1.25 21.05 2.91667 23.25 6.80555 23.25H15.6944C19.5833 23.25 21.25 21.05 21.25 17.75ZM15.1389 23.25V14.604C15.1389 14.12 14.5611 13.878 14.2056 14.197L11.6278 16.551C11.4167 16.749 11.0833 16.749 10.8722 16.551L8.29448 14.197C7.93893 13.878 7.36112 14.12 7.36112 14.604V23.25H15.1389Z" stroke="white" stroke-width="2.5"/>
</svg>
