<svg width="30" height="22" viewBox="0 0 30 22" fill="none" xmlns="http://www.w3.org/2000/svg">
<path d="M24.5455 5.5L19.0909 11H23.1818C23.1818 15.5512 19.5136 19.25 15 19.25C13.6227 19.25 12.3136 18.9062 11.1818 18.2875L9.19091 20.295C10.8682 21.3675 12.8591 22 15 22C21.0273 22 25.9091 17.0775 25.9091 11H30L24.5455 5.5ZM6.81818 11C6.81818 6.44875 10.4864 2.75 15 2.75C16.3773 2.75 17.6864 3.09375 18.8182 3.7125L20.8091 1.705C19.1318 0.6325 17.1409 0 15 0C8.97273 0 4.09091 4.9225 4.09091 11H0L5.45455 16.5L10.9091 11H6.81818Z" fill="white"/>
</svg>
