<svg width="22" height="22" viewBox="0 0 22 22" fill="none" xmlns="http://www.w3.org/2000/svg">
<path d="M18.3333 7.33333C16.2381 7.33333 14.6667 5.76191 14.6667 3.66667C14.6667 1.57143 16.2381 0 18.3333 0C20.4286 0 22 1.57143 22 3.66667C22 5.76191 20.4286 7.33333 18.3333 7.33333ZM3.66667 14.6667C1.57143 14.6667 0 13.0952 0 11C0 8.90476 1.57143 7.33333 3.66667 7.33333C5.76191 7.33333 7.33333 8.90476 7.33333 11C7.33333 13.0952 5.76191 14.6667 3.66667 14.6667ZM18.3333 22C16.2381 22 14.6667 20.4286 14.6667 18.3333C14.6667 16.2381 16.2381 14.6667 18.3333 14.6667C20.4286 14.6667 22 16.2381 22 18.3333C22 20.4286 20.4286 22 18.3333 22ZM4.1381 10.0676L18.8048 17.401L17.8724 19.2762L3.20571 11.9429L4.1381 10.0676ZM18.8048 4.59905L4.1381 11.9324L3.20571 10.0571L17.8724 2.72381L18.8048 4.59905Z" fill="white"/>
</svg>