<svg width="61" height="54" viewBox="0 0 61 54" fill="none" xmlns="http://www.w3.org/2000/svg">
<path fill-rule="evenodd" clip-rule="evenodd" d="M7.65352 50.6608C7.65352 48.8166 9.11479 47.3216 10.9173 47.3216H50.0828C51.8854 47.3216 53.3466 48.8166 53.3466 50.6608C53.3466 52.505 51.8854 54 50.0828 54H10.9173C9.11479 54 7.65352 52.505 7.65352 50.6608Z" fill="white"/>
<path fill-rule="evenodd" clip-rule="evenodd" d="M23.5764 2.93407C27.4001 -0.978025 33.5996 -0.978025 37.4235 2.93407L45.8 11.504C46.7935 12.5204 48.3108 12.7723 49.5674 12.1295L51.887 10.943C56.8965 8.38037 62.4336 13.2937 60.6626 18.7299L54.6667 37.1327C53.3341 41.2232 49.5925 43.9824 45.378 43.9824H15.6221C11.4076 43.9824 7.66588 41.2232 6.33315 37.1327L0.337435 18.7299C-1.43373 13.2937 4.10349 8.38037 9.11308 10.943L11.4325 12.1295C12.689 12.7723 14.2066 12.5204 15.2 11.504L23.5764 2.93407Z" fill="white"/>
</svg>
