<svg width="40" height="58" viewBox="0 0 40 58" fill="none" xmlns="http://www.w3.org/2000/svg">
<path d="M2 34.4L8.35315 33.0659C12.5974 32.1747 16.9968 32.5988 21.0155 34.2866C25.3704 36.1156 30.1633 36.4571 34.7137 35.2627L35.265 35.1179C36.8724 34.6962 38 33.1796 38 31.4403V11.5492C38 9.44166 36.1139 7.89526 34.1665 8.4064C29.972 9.50749 25.5535 9.19261 21.5393 7.50657L21.0155 7.28663C16.9968 5.59878 12.5974 5.17466 8.35315 6.06596L2 7.40011V34.4Z" fill="white"/>
<path d="M2 56V34.4M2 34.4L8.35315 33.0659C12.5974 32.1747 16.9968 32.5988 21.0155 34.2866C25.3704 36.1156 30.1633 36.4571 34.7137 35.2627L35.265 35.1179C36.8724 34.6962 38 33.1796 38 31.4403V11.5492C38 9.44166 36.1139 7.89526 34.1665 8.4064C29.972 9.50749 25.5535 9.19261 21.5393 7.50657L21.0155 7.28663C16.9968 5.59878 12.5974 5.17466 8.35315 6.06596L2 7.40011V34.4ZM2 34.4V2" stroke="white" stroke-width="4" stroke-linecap="round"/>
</svg>
