<svg width="45" height="84" viewBox="0 0 45 84" fill="none" xmlns="http://www.w3.org/2000/svg">
<path d="M22.2576 0.680354L22.5645 0.764917C22.704 0.811776 22.8388 0.867879 22.969 0.933227L23.4432 1.10181C24.2984 1.48492 24.7861 1.78787 24.9063 2.01065C24.9155 2.03847 25.0131 2.09906 25.1989 2.19241C25.394 2.31359 25.5008 2.402 25.5192 2.45765C25.5932 2.58762 25.5501 2.87923 25.39 3.33248C25.3243 3.4619 25.2538 3.62373 25.1786 3.81795L25.1079 4.02609L25.0516 4.13702C24.4029 5.69064 23.5858 7.43811 22.6004 9.37945C22.2905 10.0359 21.84 10.9234 21.2489 12.0419L18.025 18.3928L17.786 18.7948L17.5889 19.1831C17.2794 19.7469 17.1291 20.0659 17.1381 20.14C17.1472 20.2141 17.3421 20.3585 17.7231 20.573L17.96 20.7268L18.183 20.8388C18.3503 20.9228 18.4571 20.9881 18.5035 21.0346L18.8099 21.2581L19.1302 21.5233C19.3343 21.7186 19.4407 21.8765 19.4496 21.997C19.4582 22.1637 19.3128 22.4503 19.0132 22.8567L18.8166 23.106L18.6341 23.3276C18.4937 23.5123 18.3908 23.6462 18.3253 23.7293L17.7627 24.6997C17.547 25.0787 17.3553 25.2724 17.1877 25.281C17.1597 25.2902 16.7785 25.1451 16.044 24.8459C15.2909 24.5372 14.84 24.3456 14.6913 24.2709C14.1987 24.0467 13.5573 23.7478 12.7672 23.3742L12.307 23.1779L11.8888 22.9678C11.582 22.8369 11.345 22.7295 11.1777 22.6455L10.6479 22.3794L10.4668 22.2537L10.2717 22.1556C9.99285 22.0156 9.66287 21.8615 9.28173 21.6933C9.26314 21.6839 9.21198 21.6698 9.12824 21.651L8.86323 21.5527C8.62141 21.4776 8.4728 21.3798 8.4174 21.2592C8.39899 21.2035 8.42752 21.0554 8.50296 20.8149L8.61586 20.5235L8.71495 20.1905C8.90339 19.6354 9.04914 19.2794 9.15219 19.1223C9.33033 18.8174 9.53635 18.5264 9.77025 18.2494C10.0509 17.9263 10.2797 17.7512 10.4568 17.7241C10.6152 17.6877 10.8154 17.707 11.0572 17.782L11.3642 17.8666L11.6292 17.9649L11.9919 18.0775L12.3127 18.2038C12.5265 18.288 12.6847 18.321 12.7872 18.3029C12.8152 18.2937 12.9272 18.2339 13.1232 18.1236L13.1795 18.0126L13.1798 17.9432C13.1707 17.869 13.1756 17.8135 13.1944 17.7765C13.2693 17.6749 13.3348 17.5918 13.3909 17.5272C13.4377 17.481 13.4797 17.4441 13.5171 17.4165C13.601 17.389 13.6524 17.3568 13.6711 17.3198C13.7274 17.2089 13.798 17.0239 13.8828 16.7649L14.0098 16.4458L14.1509 16.099L14.7562 14.9065C15.0751 14.3242 15.291 13.8989 15.4038 13.6308C15.526 13.3441 15.7418 12.942 16.0511 12.4245L16.4447 11.7869C16.6041 11.5189 16.7448 11.2647 16.8668 11.0244L17.444 9.88729C17.5191 9.73938 17.6504 9.50369 17.8379 9.18023L18.0491 8.76422L18.2881 8.36223C18.654 7.68747 18.8278 7.29911 18.8096 7.19715C18.7728 7.08585 18.6052 7.07131 18.3069 7.15351C18.2044 7.17163 18.0972 7.199 17.9853 7.23562L17.7755 7.30427C17.2629 7.39489 16.9556 7.40296 16.8535 7.32846C16.7699 7.26329 16.664 6.96647 16.5357 6.43799C16.4993 6.23406 16.472 6.05796 16.454 5.90969L16.385 5.70101L16.2881 5.47832L16.3311 5.18671C16.3595 5.08493 16.3691 4.99697 16.3601 4.92283L16.3195 4.58922L16.2651 4.21386C16.2384 3.89882 16.2861 3.62112 16.4081 3.38077C16.5864 3.02948 17.3425 2.57392 18.6764 2.0141C18.9469 1.89474 19.2408 1.75232 19.5581 1.58683L19.9501 1.36605L20.328 1.17301C20.9158 0.888157 21.438 0.709572 21.8946 0.637252C21.9785 0.609792 22.0623 0.605489 22.146 0.624342L22.2576 0.680354Z" fill="white"/>
<path d="M23.9091 76.2443C24.5784 76.534 25.4198 76.8754 26.4333 77.2684L27.7305 77.7458C28.2605 77.9424 28.7301 78.1203 29.1392 78.2793C29.2508 78.3353 29.4088 78.3915 29.6135 78.4479L30.0878 78.6165C30.4691 78.7384 30.706 78.869 30.7986 79.0083C30.882 79.1198 30.895 79.3468 30.8378 79.6893C30.7808 79.9855 30.6864 80.3093 30.5546 80.6608C30.5263 80.7625 30.4794 80.8318 30.4141 80.8686L30.2739 81.007L30.2173 81.1874L30.1886 81.3818C30.1507 81.5484 30.0944 81.6593 30.0197 81.7146L29.8794 81.853C29.8327 81.8992 29.8046 81.9315 29.7952 81.95C29.7483 82.0424 29.72 82.1442 29.7102 82.2553L29.6674 82.4774C29.6387 82.6718 29.6009 82.8153 29.554 82.9077C29.5164 82.9817 29.451 83.0416 29.3577 83.0876C29.3204 83.1152 29.283 83.1429 29.2456 83.1705C29.1895 83.2351 29.1287 83.309 29.0632 83.3921C29.0538 83.4106 29.0443 83.4522 29.0347 83.517L29.0201 83.6837C28.9916 83.8318 28.9074 83.9287 28.7675 83.9745C28.5717 84.0386 28.2972 83.9819 27.9441 83.8045L27.4143 83.5385C27.2007 83.408 27.0148 83.3146 26.8567 83.2584C26.5127 83.1089 26.0711 82.9219 25.5319 82.6975L24.8765 82.4032L24.1792 82.1225C23.4819 81.8419 22.6173 81.4773 21.5854 81.0287L20.2747 80.44C19.7169 80.2062 19.2381 80.0006 18.8384 79.823C18.6897 79.7484 18.4665 79.6595 18.1689 79.5564L17.7645 79.3881L17.3739 79.2616C16.7138 78.9996 16.3328 78.7851 16.231 78.618C16.2032 78.5808 16.199 78.4743 16.2183 78.2983C16.2191 78.1131 16.2337 77.9464 16.2622 77.7983C16.2907 77.6502 16.3426 77.4791 16.4179 77.2848L16.6296 76.7299C16.7897 76.2767 16.8843 75.9065 16.9134 75.6195L17.392 74.6765C17.5707 74.2326 17.6928 73.9691 17.7583 73.886C17.8612 73.7753 18.1039 73.6187 18.4865 73.4164L18.7245 73.2923L18.9903 73.1822L19.2283 73.0581L19.4521 72.9617C19.6947 72.8515 20.049 72.7278 20.5152 72.5907L21.4803 72.2749C21.5082 72.2658 21.5503 72.2289 21.6064 72.1643L21.6346 72.1088L21.7047 72.0396L21.8585 72.0124L22.0263 71.9575C22.1941 71.9026 22.334 71.8568 22.4459 71.8202L22.9077 71.5997L23.3836 71.3514C23.7848 71.1585 24.1114 70.9977 24.3633 70.869L24.839 70.6902L25.2867 70.4974L25.4968 70.3593L25.7209 70.1935C25.9171 70.0368 26.0758 69.9309 26.1971 69.8758C26.3092 69.7928 26.4678 69.7101 26.673 69.6275L27.1349 69.407C27.3962 69.2598 27.7089 69.0573 28.0731 68.7993L28.9835 68.1777C29.6466 67.6986 30.2444 67.2331 30.777 66.7813L31.0854 66.5186L31.4219 66.2003C31.6742 65.979 31.8752 65.7667 32.025 65.5635C32.4181 65.0649 32.5224 64.5836 32.338 64.1198C32.3196 64.0641 32.2732 64.0176 32.1989 63.9803L32.1014 63.8965L32.0319 63.8268L32.0043 63.7433L32.0045 63.6738C32.0047 63.6275 31.9816 63.5811 31.9352 63.5346C31.5267 63.2366 31.0616 63.0959 30.5401 63.1124C30.3538 63.1116 30.1675 63.1341 29.9811 63.1796L29.7293 63.262L29.5336 63.3029C29.3751 63.3394 29.2167 63.3758 29.0582 63.4122C28.853 63.4948 28.6758 63.5682 28.5266 63.6325C28.4986 63.6416 28.4565 63.6785 28.4004 63.7431L28.3444 63.7846L28.2742 63.8538C28.2463 63.8629 28.1857 63.8673 28.0926 63.867C27.9995 63.8666 27.9342 63.8803 27.8969 63.9079L27.4767 64.1841C27.2901 64.276 27.1224 64.3078 26.9735 64.2794C26.7223 64.2229 26.5179 64.097 26.3604 63.9019L26.1936 63.6789L26.0548 63.47C25.4059 62.7264 24.9472 62.1364 24.6789 61.7C24.6697 61.6722 24.6326 61.6304 24.5676 61.5746C24.5119 61.5466 24.4701 61.514 24.4423 61.4768L24.3457 61.1847C24.2905 61.0177 24.2911 60.8556 24.3476 60.6984C24.4041 60.5411 24.8104 60.2231 25.5666 59.7444L26.2948 59.2749C26.5563 59.0814 26.7291 58.9709 26.813 58.9434C26.9343 58.8883 27.1579 58.8383 27.4841 58.7932L27.8755 58.7114L28.3089 58.6158L28.6586 58.4782L29.0222 58.3824C29.423 58.2821 29.7725 58.214 30.0706 58.1781C30.406 58.1609 30.7599 58.153 31.1323 58.1544C31.57 58.1654 31.9749 58.1948 32.3473 58.2426C32.5241 58.2618 32.9008 58.3698 33.4774 58.5665C33.9795 58.7723 34.4861 58.9919 34.9974 59.2255C35.555 59.5056 35.9499 59.7387 36.1819 59.9248L36.1817 59.9943L36.2093 60.0778C36.2183 60.1519 36.2321 60.1936 36.2507 60.203L36.696 60.6354C36.8723 60.7936 37.0113 60.9562 37.1131 61.1234C37.5022 61.6436 37.7414 62.367 37.8309 63.2937C37.903 63.8868 37.8774 64.4887 37.7539 65.0996C37.6113 65.8401 37.3291 66.5568 36.9073 67.2499C36.8324 67.3515 36.7342 67.4762 36.6125 67.6239L36.2757 68.0116L35.3637 69.0501C34.9989 69.447 34.6763 69.7838 34.3959 70.0606C33.4428 70.8813 32.5462 71.5447 31.7061 72.0509L31.5661 72.1198L31.454 72.2027C31.3699 72.2765 31.2719 72.3317 31.1601 72.3683C30.5723 72.6532 29.7604 73.0807 28.7245 73.6509C28.4446 73.7888 28.062 73.9911 27.5767 74.2578L26.359 74.8644C25.3698 75.3885 24.5532 75.8485 23.9091 76.2443Z" fill="white"/>
<path d="M39.4239 0L45 2.80102L5.57613 80.4516L0 77.6506L39.4239 0Z" fill="white"/>
</svg>
